HIERARCHY
ROOT joint_Root
{
	OFFSET 0.0 0.0 0.0
	CHANNELS 6 Xposition Yposition Zposition Zrotation Xrotation Yrotation 
	JOINT Hips
	{
		OFFSET 4.5925 91.4895 -427.239
		CHANNELS 6 Xposition Yposition Zposition Zrotation Xrotation Yrotation 
		JOINT Spine
		{
			OFFSET 15.7357 0.0 0.0
			CHANNELS 6 Xposition Yposition Zposition Zrotation Xrotation Yrotation 
			JOINT Chest
			{
				OFFSET 8.98455 -0.406207 0.0
				CHANNELS 6 Xposition Yposition Zposition Zrotation Xrotation Yrotation 
				JOINT Neck
				{
					OFFSET 16.3773 0.0 0.0
					CHANNELS 6 Xposition Yposition Zposition Zrotation Xrotation Yrotation 
					JOINT Head
					{
						OFFSET 6.45672 0.0 0.0
						CHANNELS 6 Xposition Yposition Zposition Zrotation Xrotation Yrotation 
						End Site
						{
							OFFSET 0.0 0.0 0.0
						}
					}
				}
				JOINT Shoulder_L
				{
					OFFSET 12.9942 -0.242716 4.98039
					CHANNELS 6 Xposition Yposition Zposition Zrotation Xrotation Yrotation 
					JOINT UpperArm_L
					{
						OFFSET 5.34809 0.0 0.0
						CHANNELS 6 Xposition Yposition Zposition Zrotation Xrotation Yrotation 
						JOINT LowerArm_L
						{
							OFFSET 24.3286 1.87007e-05 0.0
							CHANNELS 6 Xposition Yposition Zposition Zrotation Xrotation Yrotation 
							JOINT Hand_L
							{
								OFFSET 22.2916 0.0 0.0
								CHANNELS 6 Xposition Yposition Zposition Zrotation Xrotation Yrotation 
								End Site
								{
									OFFSET 0.0 0.0 0.0
								}
							}
						}
					}
				}
				JOINT Shoulder_R
				{
					OFFSET 12.9945 -0.242716 -4.98039
					CHANNELS 6 Xposition Yposition Zposition Zrotation Xrotation Yrotation 
					JOINT UpperArm_R
					{
						OFFSET -5.34813 0.0 0.0
						CHANNELS 6 Xposition Yposition Zposition Zrotation Xrotation Yrotation 
						JOINT LowerArm_R
						{
							OFFSET -24.3289 0.000322201 0.0
							CHANNELS 6 Xposition Yposition Zposition Zrotation Xrotation Yrotation 
							JOINT Hand_R
							{
								OFFSET -22.2915 -0.000108084 0.0
								CHANNELS 6 Xposition Yposition Zposition Zrotation Xrotation Yrotation 
								End Site
								{
									OFFSET 0.0 0.0 0.0
								}
							}
						}
					}
				}
			}
		}
		JOINT UpperLeg_L
		{
			OFFSET -2.19248 -6.46944 0.0
			CHANNELS 6 Xposition Yposition Zposition Zrotation Xrotation Yrotation 
			JOINT LowerLeg_L
			{
				OFFSET 39.0811 0.0 -1.23785e-05
				CHANNELS 6 Xposition Yposition Zposition Zrotation Xrotation Yrotation 
				JOINT Foot_L
				{
					OFFSET 40.9854 0.0 -1.26872e-05
					CHANNELS 6 Xposition Yposition Zposition Zrotation Xrotation Yrotation 
					JOINT Toes_L
					{
						OFFSET 11.7543 0.0 0.0
						CHANNELS 6 Xposition Yposition Zposition Zrotation Xrotation Yrotation 
						End Site
						{
							OFFSET 0.0 0.0 0.0
						}
					}
				}
			}
		}
		JOINT UpperLeg_R
		{
			OFFSET -2.19251 6.46944 0.0
			CHANNELS 6 Xposition Yposition Zposition Zrotation Xrotation Yrotation 
			JOINT LowerLeg_R
			{
				OFFSET -39.0811 -0.00228153 -0.0401928
				CHANNELS 6 Xposition Yposition Zposition Zrotation Xrotation Yrotation 
				JOINT Foot_R
				{
					OFFSET -40.9854 0.0 0.0
					CHANNELS 6 Xposition Yposition Zposition Zrotation Xrotation Yrotation 
					JOINT Toes_R
					{
						OFFSET -11.7543 0.0 0.0
						CHANNELS 6 Xposition Yposition Zposition Zrotation Xrotation Yrotation 
						End Site
						{
							OFFSET 0.0 0.0 0.0
						}
					}
				}
			}
		}
	}
}
MOTION
Frames:	4
Frame Time:	0.0333333
0.000000 0.000000 0.000000 0.000000 0.000000 -0.000000 -1.910080 80.717500 15.445100 -91.526200 -4.803170 173.590000 15.735700 0.000005 -0.000001 65.424700 81.819500 -66.656700 8.984550 -0.406207 -0.000000 7.078710 -6.773080 -2.044060 16.377300 -0.000001 -0.000001 -2.367660 -3.141010 0.160263 6.456720 -0.000001 -0.000000 0.226696 -1.467540 7.219260 12.994200 -0.242716 4.980390 -89.885400 -0.463057 -76.098600 5.348090 -0.000007 -0.000001 -65.349700 11.520300 -34.945400 24.328600 0.000019 0.000005 5.848720 -1.689640 -106.060000 22.291600 -0.000001 0.000005 -6.983520 5.439600 -4.271600 12.994500 -0.242716 -4.980390 87.663300 8.747740 -74.980400 -5.348130 -0.000001 -0.000004 -58.909800 36.509000 18.882000 -24.328900 0.000322 -0.000009 -11.097100 -10.266900 -47.735300 -22.291500 -0.000108 -0.000004 10.403600 5.654730 -15.484900 -2.192480 -6.469440 -0.000000 175.910000 -6.295830 -16.867300 39.081100 -0.000007 -0.000012 -0.614402 0.410180 56.274100 40.985400 -0.000006 -0.000013 6.052720 -0.744688 -96.306800 11.754300 -0.000000 0.000003 -0.694220 -0.862382 -16.038100 -2.192510 6.469440 -0.000001 176.948000 6.847950 132.127000 -39.081100 -0.002282 -0.040193 -0.206763 -0.205785 134.392000 -40.985400 0.000008 0.000006 -3.460500 7.227640 -3.526930 -11.754300 -0.000006 -0.000006 -0.014124 -0.132227 -21.966600
0.000000 0.000000 0.000000 0.000000 0.000000 -0.000000 -1.052000 84.085700 3.389610 -87.171800 -8.474630 171.505000 15.735700 0.000005 -0.000001 49.770800 81.463700 -48.728600 8.984550 -0.406207 -0.000000 5.449420 -11.022700 2.613050 16.377300 -0.000001 -0.000001 -1.200490 -2.552460 -0.201487 6.456720 -0.000001 -0.000000 1.476780 1.890440 5.526980 12.994200 -0.242716 4.980390 -89.332300 -2.741310 -76.305800 5.348090 -0.000007 -0.000001 -62.445900 12.368500 -36.691000 24.328600 0.000019 0.000005 3.359590 -1.587920 -115.270000 22.291600 -0.000001 0.000005 -8.215950 5.427180 -3.842300 12.994500 -0.242716 -4.980390 88.065900 6.033390 -72.188700 -5.348130 -0.000001 -0.000004 -59.442600 37.572200 26.175200 -24.328900 0.000322 -0.000009 -10.925500 -8.303120 -53.196200 -22.291500 -0.000108 -0.000004 8.855910 5.658150 -15.849500 -2.192480 -6.469440 -0.000000 -176.546000 -5.529910 -5.948830 39.081100 -0.000007 -0.000012 0.067196 -0.072039 43.006400 40.985400 -0.000006 -0.000013 7.580300 3.440550 -84.921900 11.754300 -0.000000 0.000003 -0.042640 -0.270478 -27.695500 -2.192510 6.469440 -0.000001 -174.201000 7.351010 126.595000 -39.081100 -0.002282 -0.040193 -0.225919 -0.147348 122.714000 -40.985400 0.000008 0.000006 7.109550 2.055370 -23.012700 -11.754300 -0.000006 -0.000006 -0.013073 -0.125321 -21.683500
0.000000 0.000000 0.000000 0.000000 0.000000 -0.000000 -0.359484 88.595100 -8.516900 -84.859800 -10.426600 167.809000 15.735700 0.000005 -0.000001 37.774100 81.515600 -35.045400 8.984550 -0.406207 -0.000000 3.032370 -13.513000 5.830810 16.377300 -0.000001 -0.000001 -0.425007 -1.979220 -0.219507 6.456720 -0.000001 -0.000000 2.560740 3.971070 4.331040 12.994200 -0.242716 4.980390 -88.763000 -4.899040 -75.810000 5.348090 -0.000007 -0.000001 -62.347100 15.155500 -35.505600 24.328600 0.000019 0.000005 2.755980 -1.652870 -120.931000 22.291600 -0.000001 0.000005 -9.788480 5.407210 -3.172960 12.994500 -0.242716 -4.980390 88.881100 3.116650 -70.240900 -5.348130 -0.000001 -0.000004 -60.932200 35.612900 32.637500 -24.328900 0.000322 -0.000009 -11.028100 -6.693890 -59.113100 -22.291500 -0.000108 -0.000004 8.225640 5.654430 -15.453200 -2.192480 -6.469440 -0.000000 -170.945000 -7.808700 -0.443165 39.081100 -0.000007 -0.000012 0.019827 -0.032882 31.088000 40.985400 -0.000006 -0.000013 3.550150 10.006800 -59.257000 11.754300 -0.000000 0.000003 -0.250536 -0.723125 -47.996300 -2.192510 6.469440 -0.000001 -169.824000 5.110600 122.452000 -39.081100 -0.002282 -0.040193 -0.093314 -0.026123 105.076000 -40.985400 0.000008 0.000006 10.349400 -6.225950 -39.836300 -11.754300 -0.000006 -0.000006 -0.012981 -0.124704 -21.658200
0.000000 0.000000 0.000000 0.000000 0.000000 -0.000000 -0.189131 92.444300 -20.319200 -86.442500 -9.716450 168.224000 15.735700 0.000005 -0.000001 36.230600 80.951200 -33.564700 8.984550 -0.406207 -0.000000 3.375750 -14.685100 5.783870 16.377300 -0.000001 -0.000001 0.122163 -1.223590 -0.176003 6.456720 -0.000001 -0.000000 3.301580 5.606530 3.619530 12.994200 -0.242716 4.980390 -88.389200 -6.239000 -75.492000 5.348090 -0.000007 -0.000001 -62.965500 18.504200 -33.123600 24.328600 0.000019 0.000005 3.155720 -2.127810 -123.959000 22.291600 -0.000001 0.000005 -9.503000 5.390270 -2.623880 12.994500 -0.242716 -4.980390 89.992500 0.020131 -69.684600 -5.348130 -0.000001 -0.000004 -63.933400 32.076500 37.793300 -24.328900 0.000322 -0.000009 -10.155300 -4.857000 -64.697600 -22.291500 -0.000108 -0.000004 7.811160 5.642300 -14.319700 -2.192480 -6.469440 -0.000000 -167.623000 -14.771600 7.919670 39.081100 -0.000007 -0.000012 0.036724 -0.097132 20.710600 40.985400 -0.000006 -0.000013 -6.014850 15.026500 -32.531100 11.754300 -0.000000 0.000003 -0.026171 -0.199359 -24.735700 -2.192510 6.469440 -0.000001 -171.513000 4.711920 125.556000 -39.081100 -0.002282 -0.040193 0.028146 -0.002781 83.795900 -40.985400 0.000008 0.000006 9.690920 -9.106660 -49.640800 -11.754300 -0.000006 -0.000006 -0.013326 -0.127003 -21.752400
